# xmcd
#
# Track frame offsets:
#	180
#	15136
#	28913
#	42315
#	56270
#	70016
#	82697
#	93569
#	108086
#	121623
#	136778
#	152013
#	164547
#	177170
#	190906
#
# Disc length: 2764 seconds
#
# Revision: 1
# Processed by: cddbd v1.5.2PL0 Copyright (c) Steve Scherf et al.
# Submitted via: EasyCDDAExtractor 6.5.0.1
#
DISCID=a90aca0f
DTITLE=Johnny Duncan - Again
DYEAR=1900
DGENRE=Country
TTITLE0=Wild Oats
TTITLE1=Watching Elizabeth Play
TTITLE2=Skeletons
TTITLE3=Goldie
TTITLE4=Buenos Noches Nacadoches
TTITLE5=One For The Road
TTITLE6=There's A Whole Lot Of Peaches (Here In Georgia)
TTITLE7=I Wonder Who's Missing You Now
TTITLE8=Fool's Moon
TTITLE9=Her Side
TTITLE10=Stranger
TTITLE11=Sweet Country Woman
TTITLE12=She Can Put Her Shoes Under My Bed (Anytime)
TTITLE13=It Couldn't Have Been Any Better
TTITLE14=Thinkin' Of A Rendezvous
EXTD=
EXTT0=
EXTT1=
EXTT2=
EXTT3=
EXTT4=
EXTT5=
EXTT6=
EXTT7=
EXTT8=
EXTT9=
EXTT10=
EXTT11=
EXTT12=
EXTT13=
EXTT14=
PLAYORDER=
